<?xml version="1.0" standalone="no"?>
<!DOCTYPE svg PUBLIC "-//W3C//DTD SVG 20010904//EN"
 "http://www.w3.org/TR/2001/REC-SVG-20010904/DTD/svg10.dtd">
<svg version="1.0" xmlns="http://www.w3.org/2000/svg"
 width="900.000000pt" height="342.000000pt" viewBox="0 0 900.000000 342.000000"
 preserveAspectRatio="xMidYMid meet">

<g transform="translate(0.000000,342.000000) scale(0.100000,-0.100000)"
fill="#000000" stroke="none">
<path d="M6068 2223 l-3 -43 37 0 c37 0 38 1 38 39 0 37 -2 39 -34 43 -34 4
-34 3 -38 -39z"/>
<path d="M4673 2067 c-73 -27 -111 -92 -98 -172 9 -60 45 -89 137 -109 175
-38 196 -53 184 -121 -11 -57 -45 -75 -140 -74 -44 0 -102 4 -128 8 -33 5 -48
4 -48 -3 0 -6 -3 -21 -6 -32 -5 -20 0 -22 95 -34 209 -26 300 22 301 158 0 90
-34 117 -189 153 -107 24 -134 43 -134 88 0 68 66 95 197 80 117 -13 116 -13
116 20 0 28 -2 29 -75 40 -94 14 -170 13 -212 -2z"/>
<path d="M5250 2050 c-67 -24 -70 -24 -70 -5 0 10 -10 15 -33 15 l-34 0 -6
-227 c-4 -124 -7 -300 -7 -390 l0 -163 35 0 34 0 3 123 3 122 35 -5 c72 -10
185 -4 216 13 82 43 109 110 109 272 0 108 -2 125 -25 170 -44 89 -141 117
-260 75z m153 -62 c37 -20 60 -95 60 -194 -2 -164 -45 -218 -173 -217 -118 0
-110 -14 -110 198 l0 184 30 16 c65 33 145 39 193 13z"/>
<path d="M5895 2041 c-27 -10 -69 -28 -92 -40 l-43 -21 0 35 c0 33 -2 35 -34
35 l-33 0 -6 -67 c-4 -38 -7 -158 -7 -268 l0 -200 35 -2 35 -2 0 152 c0 84 3
176 6 204 l7 53 76 29 c42 16 85 31 96 33 15 2 21 12 23 41 4 42 4 42 -63 18z"/>
<path d="M6060 1796 c0 -140 -3 -261 -6 -270 -5 -13 2 -16 35 -16 l41 0 2 230
c1 127 2 247 3 268 0 36 -1 37 -37 40 l-38 3 0 -255z"/>
<path d="M6445 2030 c-73 -24 -79 -24 -71 -5 4 12 -3 15 -34 15 l-40 0 -2
-210 c-1 -115 -2 -236 -3 -267 l0 -58 35 0 35 0 3 217 2 218 28 14 c65 33 168
38 212 11 32 -20 40 -73 40 -270 l0 -195 36 0 35 0 -3 223 c-3 255 -9 275 -81
308 -53 24 -115 23 -192 -1z"/>
<path d="M6977 2026 c-76 -28 -107 -78 -107 -171 0 -67 18 -115 54 -141 l26
-19 -20 -40 c-24 -46 -25 -61 -6 -96 13 -25 11 -28 -24 -62 -83 -78 -54 -217
51 -247 47 -14 213 -13 257 1 74 23 112 79 112 161 0 108 -39 137 -200 147
-134 9 -150 19 -132 79 l12 40 90 4 c99 5 133 20 159 74 23 45 26 136 7 175
-9 18 -16 34 -16 37 0 2 23 2 50 0 50 -3 50 -3 50 28 l0 30 -82 0 c-46 0 -119
3 -163 7 -60 6 -90 4 -118 -7z m187 -75 c48 -45 42 -164 -10 -198 -35 -22
-134 -22 -169 1 -46 30 -59 108 -29 171 20 44 47 55 121 52 49 -2 68 -8 87
-26z m10 -461 c54 -12 71 -32 71 -85 0 -51 -30 -90 -79 -101 -44 -10 -143 -7
-182 6 -42 14 -54 35 -54 93 0 35 6 50 26 71 24 24 34 26 103 26 42 0 94 -5
115 -10z"/>
</g>
</svg>
